HIERARCHY
ROOT Hips
{
    OFFSET   0.000000   0.000000   0.000000
    CHANNELS 6 Xposition Yposition Zposition Zrotation Xrotation Yrotation
    JOINT Chest
    {
        OFFSET   0.000000   8.007230   0.000000
        CHANNELS 3 Zrotation Xrotation Yrotation
        JOINT Chest2
        {
            OFFSET   0.000000  22.077100   0.000000
            CHANNELS 3 Zrotation Xrotation Yrotation
            JOINT Neck
            {
                OFFSET   0.000000  23.254800   0.000000
                CHANNELS 3 Zrotation Xrotation Yrotation
                JOINT Head
                {
                    OFFSET   0.000010  14.370000   1.956600
                    CHANNELS 3 Zrotation Xrotation Yrotation
                    End Site
                    {
                        OFFSET   0.000000  19.566000   0.000000
                    }
                }
            }
            JOINT LeftCollar
            {
                OFFSET   3.911900  19.017000  -0.467062
                CHANNELS 3 Zrotation Xrotation Yrotation
                JOINT LeftShoulder
                {
                    OFFSET  10.383700   0.000000   0.000000
                    CHANNELS 3 Zrotation Xrotation Yrotation
                    JOINT LeftElbow
                    {
                        OFFSET  26.662100   0.001193   0.000835
                        CHANNELS 3 Zrotation Xrotation Yrotation
                        JOINT LeftWrist
                        {
                            OFFSET  28.869000  -0.000058  -0.000075
                            CHANNELS 3 Zrotation Xrotation Yrotation
                            JOINT LeftFinger0
                            {
                                OFFSET   2.044660  -2.323460   3.252850
                                CHANNELS 3 Zrotation Xrotation Yrotation
                                JOINT LeftFinger01
                                {
                                    OFFSET   3.088130   0.000000   0.000000
                                    CHANNELS 3 Zrotation Xrotation Yrotation
                                    JOINT LeftFinger02
                                    {
                                        OFFSET   2.639450   0.000000   0.000000
                                        CHANNELS 3 Zrotation Xrotation Yrotation
                                        End Site
                                        {
                                            OFFSET   2.582190   0.000000   0.000000
                                        }
                                    }
                                }
                            }
                            JOINT LeftFinger1
                            {
                                OFFSET   8.364480   0.000000   3.252850
                                CHANNELS 3 Zrotation Xrotation Yrotation
                                JOINT LeftFinger11
                                {
                                    OFFSET   4.646920   0.000000   0.000000
                                    CHANNELS 3 Zrotation Xrotation Yrotation
                                    JOINT LeftFinger12
                                    {
                                        OFFSET   2.323460   0.000000   0.000000
                                        CHANNELS 3 Zrotation Xrotation Yrotation
                                        End Site
                                        {
                                            OFFSET   2.273050   0.000000   0.000000
                                        }
                                    }
                                }
                            }
                            JOINT LeftFinger2
                            {
                                OFFSET   8.364490   0.000016   1.078090
                                CHANNELS 3 Zrotation Xrotation Yrotation
                                JOINT LeftFinger21
                                {
                                    OFFSET   5.111620   0.000000   0.000000
                                    CHANNELS 3 Zrotation Xrotation Yrotation
                                    JOINT LeftFinger22
                                    {
                                        OFFSET   2.788150   0.000012   0.000000
                                        CHANNELS 3 Zrotation Xrotation Yrotation
                                        End Site
                                        {
                                            OFFSET   2.727660   0.000000   0.000000
                                        }
                                    }
                                }
                            }
                            JOINT LeftFinger3
                            {
                                OFFSET   7.899780   0.000014  -1.078090
                                CHANNELS 3 Zrotation Xrotation Yrotation
                                JOINT LeftFinger31
                                {
                                    OFFSET   4.646930   0.000000   0.000000
                                    CHANNELS 3 Zrotation Xrotation Yrotation
                                    JOINT LeftFinger32
                                    {
                                        OFFSET   2.323470   0.000000   0.000000
                                        CHANNELS 3 Zrotation Xrotation Yrotation
                                        End Site
                                        {
                                            OFFSET   2.273050   0.000000   0.000000
                                        }
                                    }
                                }
                            }
                            JOINT LeftFinger4
                            {
                                OFFSET   7.435090   0.000000  -3.252850
                                CHANNELS 3 Zrotation Xrotation Yrotation
                                JOINT LeftFinger41
                                {
                                    OFFSET   3.717550   0.000000   0.000000
                                    CHANNELS 3 Zrotation Xrotation Yrotation
                                    JOINT LeftFinger42
                                    {
                                        OFFSET   1.858770   0.000000   0.000000
                                        CHANNELS 3 Zrotation Xrotation Yrotation
                                        End Site
                                        {
                                            OFFSET   1.818440   0.000000   0.000000
                                        }
                                    }
                                }
                            }
                        }
                    }
                }
            }
            JOINT RightCollar
            {
                OFFSET  -3.911900  19.017000  -0.467063
                CHANNELS 3 Zrotation Xrotation Yrotation
                JOINT RightShoulder
                {
                    OFFSET -10.383700   0.000023   0.000000
                    CHANNELS 3 Zrotation Xrotation Yrotation
                    JOINT RightElbow
                    {
                        OFFSET -26.662100   0.001246   0.001011
                        CHANNELS 3 Zrotation Xrotation Yrotation
                        JOINT RightWrist
                        {
                            OFFSET -28.869000  -0.000026  -0.000078
                            CHANNELS 3 Zrotation Xrotation Yrotation
                            JOINT RightFinger0
                            {
                                OFFSET  -2.044660  -2.323490   3.252850
                                CHANNELS 3 Zrotation Xrotation Yrotation
                                JOINT RightFinger01
                                {
                                    OFFSET  -3.088130   0.000000   0.000000
                                    CHANNELS 3 Zrotation Xrotation Yrotation
                                    JOINT RightFinger02
                                    {
                                        OFFSET  -2.639460   0.000000   0.000000
                                        CHANNELS 3 Zrotation Xrotation Yrotation
                                        End Site
                                        {
                                            OFFSET  -2.582190   0.000000   0.000000
                                        }
                                    }
                                }
                            }
                            JOINT RightFinger1
                            {
                                OFFSET  -8.364480   0.000000   3.252850
                                CHANNELS 3 Zrotation Xrotation Yrotation
                                JOINT RightFinger11
                                {
                                    OFFSET  -4.646920   0.000000   0.000000
                                    CHANNELS 3 Zrotation Xrotation Yrotation
                                    JOINT RightFinger12
                                    {
                                        OFFSET  -2.323470   0.000000   0.000000
                                        CHANNELS 3 Zrotation Xrotation Yrotation
                                        End Site
                                        {
                                            OFFSET  -2.273050   0.000000   0.000000
                                        }
                                    }
                                }
                            }
                            JOINT RightFinger2
                            {
                                OFFSET  -8.364480   0.000000   1.078090
                                CHANNELS 3 Zrotation Xrotation Yrotation
                                JOINT RightFinger21
                                {
                                    OFFSET  -5.111620   0.000000   0.000000
                                    CHANNELS 3 Zrotation Xrotation Yrotation
                                    JOINT RightFinger22
                                    {
                                        OFFSET  -2.788160   0.000000   0.000000
                                        CHANNELS 3 Zrotation Xrotation Yrotation
                                        End Site
                                        {
                                            OFFSET  -2.727660   0.000000   0.000000
                                        }
                                    }
                                }
                            }
                            JOINT RightFinger3
                            {
                                OFFSET  -7.899780   0.000000  -1.078090
                                CHANNELS 3 Zrotation Xrotation Yrotation
                                JOINT RightFinger31
                                {
                                    OFFSET  -4.646930   0.000000   0.000000
                                    CHANNELS 3 Zrotation Xrotation Yrotation
                                    JOINT RightFinger32
                                    {
                                        OFFSET  -2.323470   0.000000   0.000000
                                        CHANNELS 3 Zrotation Xrotation Yrotation
                                        End Site
                                        {
                                            OFFSET  -2.273050   0.000000   0.000000
                                        }
                                    }
                                }
                            }
                            JOINT RightFinger4
                            {
                                OFFSET  -7.435090   0.000000  -3.252850
                                CHANNELS 3 Zrotation Xrotation Yrotation
                                JOINT RightFinger41
                                {
                                    OFFSET  -3.717550   0.000000   0.000000
                                    CHANNELS 3 Zrotation Xrotation Yrotation
                                    JOINT RightFinger42
                                    {
                                        OFFSET  -1.858760   0.000000   0.000000
                                        CHANNELS 3 Zrotation Xrotation Yrotation
                                        End Site
                                        {
                                            OFFSET  -1.818440   0.000000   0.000000
                                        }
                                    }
                                }
                            }
                        }
                    }
                }
            }
        }
    }
    JOINT LeftHip
    {
        OFFSET   9.783010   0.000000   0.000000
        CHANNELS 3 Zrotation Xrotation Yrotation
        JOINT LeftKnee
        {
            OFFSET   0.000073 -41.789100   0.001749
            CHANNELS 3 Zrotation Xrotation Yrotation
            JOINT LeftAnkle
            {
                OFFSET   0.000111 -41.133200  -0.000179
                CHANNELS 3 Zrotation Xrotation Yrotation
                JOINT LeftToe
                {
                    OFFSET   0.000000  -6.358960  14.674500
                    CHANNELS 3 Zrotation Xrotation Yrotation
                    End Site
                    {
                        OFFSET   0.000000   0.000000   3.913200
                    }
                }
            }
        }
    }
    JOINT RightHip
    {
        OFFSET  -9.783010   0.000000   0.000000
        CHANNELS 3 Zrotation Xrotation Yrotation
        JOINT RightKnee
        {
            OFFSET   0.000424 -41.789200   0.005205
            CHANNELS 3 Zrotation Xrotation Yrotation
            JOINT RightAnkle
            {
                OFFSET   0.000000 -41.133200  -0.000155
                CHANNELS 3 Zrotation Xrotation Yrotation
                JOINT RightToe
                {
                    OFFSET   0.000000  -6.358960  14.674500
                    CHANNELS 3 Zrotation Xrotation Yrotation
                    End Site
                    {
                        OFFSET   0.000000   0.000000   3.913200
                    }
                }
            }
        }
    }
}
MOTION
Frames: 5
Frame Time:   0.016667
 -0.732247  89.484500   1.686250  -2.729370  -7.451980   1.752190   0.954003   4.419750   0.474030   1.879610   8.846690   0.877874   0.821428  -0.183533   0.012249   1.349480  -0.372234   0.517590  -6.509680  -0.780108   0.698559 -73.219200  20.718700  -3.187470  -0.425476  -3.289220 -17.861300  17.551400 -14.567600   7.785260  37.375300  31.631500 -61.250200 -33.736100   0.002469   0.001721 -11.868100   0.000845   0.006158 -33.521300   5.774980  -8.637210 -27.783700  -0.003024   0.012426 -19.465200  -0.004174   0.003760 -28.565700  -1.218930   2.237430 -37.274100   0.003439   0.011536 -24.824600  -0.011474  -0.002332 -28.439100  -1.213680   2.240280 -35.678600   0.003729  -0.004587 -23.761900   0.003605   0.003109 -31.813400  -1.343710   2.164810 -47.758200  -0.004747   0.004936 -31.806900   0.003945   0.000714  11.106000   1.205960   7.294580  67.255300   8.772530  -0.166330  -2.973590  -4.139560  12.481600 -13.033600  -9.620420   5.210230 -41.454800  28.672100  66.376300  21.412400   0.001934  -0.000668   5.706180   0.003567   0.002242  28.980100   6.908970  12.253700  24.318700   0.003091  -0.002207  17.023100   0.001585  -0.004866  28.081200   2.628590   4.912830  33.364100  -0.002727  -0.002280  22.220500  -0.002922  -0.002279  27.858500   1.680100   3.174870  31.405000  -0.001944  -0.003921  20.915700  -0.002154  -0.001959  35.122000   0.207307   0.294954  52.683800  -0.000781  -0.000297  35.087400  -0.000531  -0.006073   3.674420  10.202600   2.771090   1.094030   0.221558   5.472930  -2.301250  -3.818610   1.355800  -0.000000   0.000000   0.000000   2.333480  10.936500  -6.828180   0.612650   0.563570 -13.349400  -0.265647  -4.643820   0.012833   0.000000   0.000000   0.000000
 -0.732360  89.484400   1.674830  -2.730130  -7.462050   1.752230   0.954063   4.433890   0.473732   1.879710   8.874970   0.876936   0.826776  -0.191874   0.012235   1.358280  -0.388990   0.517722  -6.509880  -0.787321   0.698556 -73.207300  20.747700  -3.207350  -0.423526  -3.289530 -17.888400  17.559100 -14.583300   7.795440  37.363400  31.620600 -61.248700 -33.746500   0.002467   0.001712 -11.873300   0.000842   0.006170 -33.537000   5.768040  -8.622010 -27.795600  -0.003024   0.012431 -19.465200  -0.004174   0.003759 -28.564900  -1.229760   2.257140 -37.302100   0.003439   0.011538 -24.843200  -0.011476  -0.002331 -28.438300  -1.224490   2.259990 -35.707400   0.003731  -0.004586 -23.781100   0.003607   0.003107 -31.828800  -1.356150   2.183560 -47.781900  -0.004748   0.004937 -31.822700   0.003946   0.000714  11.113600   1.182240   7.316120  67.183900   8.941530  -0.112926  -2.976410  -4.040410  12.501700 -13.033200  -9.542030   5.203580 -41.448700  28.646000  66.394500  21.400600   0.001926  -0.000677   5.700280   0.003569   0.002243  28.982200   6.925880  12.281700  24.323300   0.003088  -0.002206  17.026300   0.001588  -0.004869  28.080900   2.645690   4.944700  33.372800  -0.002694  -0.002253  22.226300  -0.002886  -0.002241  27.858900   1.699000   3.210490  31.413400  -0.001946  -0.003869  20.921300  -0.002131  -0.001927  35.123700   0.207309   0.294954  52.686200  -0.000732  -0.000257  35.089000  -0.000493  -0.006077   3.678520  10.198700   2.771050   1.090250   0.236442   5.472660  -2.302560  -3.818300   1.355290   0.000000   0.000000  -0.000000   2.332100  10.928900  -6.828120   0.612227   0.579714 -13.349600  -0.265421  -4.642510   0.014276  -0.000000   0.000000   0.000000
 -0.732561  89.484300   1.655510  -2.732690  -7.478360   1.752300   0.954184   4.460140   0.473442   1.879850   8.927480   0.876056   0.841436  -0.208659   0.012206   1.382400  -0.422820   0.517856  -6.509940  -0.806172   0.698530 -73.182900  20.809800  -3.242800  -0.419621  -3.294420 -17.928200  17.568400 -14.604500   7.809280  37.345800  31.608000 -61.249200 -33.760900   0.002466   0.001697 -11.880400   0.000839   0.006189 -33.553400   5.758540  -8.602760 -27.807500  -0.003025   0.012441 -19.465200  -0.004174   0.003758 -28.563700  -1.244720   2.284420 -37.330100   0.003439   0.011545 -24.861900  -0.011482  -0.002330 -28.437100  -1.239410   2.287290 -35.736100   0.003733  -0.004586 -23.800300   0.003610   0.003103 -31.843900  -1.373180   2.209620 -47.805600  -0.004749   0.004940 -31.838500   0.003948   0.000715  11.129500   1.136610   7.353990  67.063400   9.243090  -0.038294  -3.008510  -3.789060  12.586800 -13.031700  -9.464070   5.168330 -41.411500  28.611400  66.421600  21.378400   0.001910  -0.000686   5.689210   0.003584   0.002246  28.993600   6.959720  12.334000  24.338300   0.003077  -0.002201  17.036900   0.001602  -0.004879  28.082700   2.677860   5.004070  33.407800  -0.002620  -0.002194  22.249600  -0.002804  -0.002160  27.862600   1.733370   3.274730  31.448200  -0.001949  -0.003751  20.944500  -0.002076  -0.001860  35.135200   0.207310   0.294952  52.703300  -0.000624  -0.000181  35.100400  -0.000403  -0.006081   3.686500  10.194800   2.771020   1.083270   0.251326   5.472380  -2.304080  -3.816130   1.354780  -0.000000   0.000000   0.000000   2.330720  10.921300  -6.828130   0.611804   0.595858 -13.349700  -0.264989  -4.633340   0.018310   0.000000   0.000000   0.000000
 -0.732793  89.484300   1.639530  -2.737990  -7.490660   1.750150   0.954375   4.487230   0.473790   1.880020   8.981630   0.876544   0.864845  -0.228689   0.012170   1.420870  -0.463406   0.515505  -6.509500  -0.837030   0.698343 -73.151100  20.895900  -3.277010  -0.423203  -3.342140 -17.950000  17.551200 -14.611000   7.813300  37.340900  31.615400 -61.262000 -33.765800   0.002466   0.001681 -11.882900   0.000851   0.006202 -33.553900   5.756020  -8.598890 -27.807300  -0.003029   0.012446 -19.463000  -0.004175   0.003759 -28.563400  -1.249550   2.293410 -37.328100   0.003443   0.011557 -24.860600  -0.011495  -0.002332 -28.436800  -1.244220   2.296290 -35.734100   0.003736  -0.004590 -23.799000   0.003611   0.003099 -31.837100  -1.378280   2.218450 -47.795900  -0.004747   0.004945 -31.832000   0.003950   0.000716  11.150000   1.088510   7.391480  66.971800   9.504780  -0.007021  -3.088740  -3.424260  12.748300 -13.028400  -9.585690   5.089390 -41.414500  28.623200  66.450500  21.356100   0.001892  -0.000656   5.678050   0.003628   0.002263  29.019300   6.993130  12.378300  24.364900   0.003057  -0.002188  17.055500   0.001631  -0.004896  28.089300   2.706950   5.056500  33.481000  -0.002513  -0.002109  22.298400  -0.002684  -0.002047  27.872300   1.761690   3.326580  31.520500  -0.001950  -0.003578  20.992600  -0.001989  -0.001772  35.177900   0.198424   0.282080  52.767200  -0.000472  -0.000096  35.143000  -0.000258  -0.006073   3.695920  10.196500   2.771080   1.075320   0.249361   5.472440  -2.304410  -3.810030   1.354780  -0.000000   0.000000   0.000000   2.333540  10.927400  -6.828420   0.610159   0.576460 -13.349700  -0.271014  -4.603600   0.024644  -0.000000   0.000000   0.000000
 -0.732940  89.484500   1.622990  -2.745110  -7.501970   1.742780   0.954374   4.516670   0.475428   1.879800   9.040520   0.879186   0.895915  -0.251085   0.012129   1.471910  -0.508831   0.508424  -6.508600  -0.873210   0.697105 -73.118300  20.985000  -3.312050  -0.436247  -3.407230 -17.964900  17.523500 -14.612000   7.814490  37.349100  31.627900 -61.276600 -33.768000   0.002467   0.001671 -11.884000   0.000872   0.006215 -33.552200   5.754520  -8.597370 -27.806000  -0.003033   0.012456 -19.459700  -0.004175   0.003760 -28.563200  -1.251980   2.298030 -37.320300   0.003447   0.011573 -24.855300  -0.011513  -0.002333 -28.436700  -1.246620   2.300930 -35.726600   0.003739  -0.004596 -23.793900   0.003613   0.003093 -31.825000  -1.380480   2.223220 -47.777700  -0.004745   0.004951 -31.820000   0.003952   0.000718  11.172700   1.030610   7.425230  66.864600   9.833080   0.003068  -3.221390  -2.923250  13.002000 -13.008500  -9.824580   4.984160 -41.469000  28.704200  66.573700  21.329600   0.001870  -0.000625   5.664810   0.003689   0.002288  29.054800   7.044420  12.447800  24.402400   0.003029  -0.002170  17.081700   0.001670  -0.004919  28.097400   2.749140   5.132850  33.575300  -0.002400  -0.002024  22.361200  -0.002556  -0.001926  27.885100   1.803830   3.403890  31.616700  -0.001950  -0.003394  21.056700  -0.001894  -0.001679  35.240300   0.182570   0.259020  52.860800  -0.000312   0.000000  35.205300  -0.000116  -0.006065   3.705200  10.206900   2.771530   1.067190   0.235608   5.472870  -2.304820  -3.793710   1.354820  -0.000000   0.000000   0.000000   2.337900  10.933600  -6.828650   0.608514   0.557062 -13.349700  -0.276837  -4.580100   0.033560   0.000000   0.000000   0.000000
